# xmcd CD database file
#
# Track frame offsets:
#	150
#	30118
#	64765
#	108320
#	141015
#	174328
#	194136
#	217591
#	236109
#	261082
#
# Disc length: 3783 seconds
#
# Revision: 0
# Processed by: cddbd v1.5.2PL0 Copyright (c) Steve Scherf et al.
# Submitted via: CDex 1.51
#
DISCID=840ec50a
DTITLE=3 Cohens - FAMILY with special guest Jon Hendricks
DYEAR=2011
DGENRE=Jazz
TTITLE0=Shufla De Shufla
TTITLE1=Blues For Dandi's Orange Bull Chasing An Orange Sack
TTITLE2=With The Soulf Of The Greatest Of Them All (Dedicated to Charles Mingus)
TTITLE3=The Mooch
TTITLE4=Do You Know What It Means to Miss New Orleans
TTITLE5=Rhapsody In Blake
TTITLE6=On the Sunny Side Of The Street
TTITLE7=Tiger Rag
TTITLE8=Family
TTITLE9=Roll 'Em Pete
EXTD=YEAR: 2011
EXTT0=
EXTT1=
EXTT2=
EXTT3=
EXTT4=
EXTT5=
EXTT6=
EXTT7=
EXTT8=
EXTT9=
PLAYORDER=
